<?xml version="1.0" encoding="UTF-8" standalone="no"?>
<svg width="1000px" height="206px" viewBox="0 0 1000 206" version="1.1" xmlns="http://www.w3.org/2000/svg" xmlns:xlink="http://www.w3.org/1999/xlink" xmlns:sketch="http://www.bohemiancoding.com/sketch/ns">
    <!-- Generator: Sketch 3.0.4 (8054) - http://www.bohemiancoding.com/sketch -->
    <title>Levered Returns</title>
    <desc>Created with Sketch.</desc>
    <defs></defs>
    <g id="Page-1" stroke="none" stroke-width="1" fill="none" fill-rule="evenodd" sketch:type="MSPage">
        <g id="Levered-Returns" sketch:type="MSLayerGroup" transform="translate(0.000000, 1.000000)">
            <g id="Shape" transform="translate(0.000000, 55.000000)" sketch:type="MSShapeGroup">
                <path d="M20.71,56.223 C20.71,74.026 21.195,81.777 23.375,83.96 C25.314,85.898 28.461,86.745 37.909,86.745 C44.328,86.745 49.658,86.624 52.565,83.111 C54.139,81.174 55.349,78.144 55.712,75.843 C55.835,74.878 56.077,74.27 56.804,74.27 C57.41,74.27 57.529,74.756 57.529,76.086 C57.529,77.418 56.683,84.686 55.712,88.2 C54.866,90.983 54.503,91.468 48.083,91.468 C39.363,91.468 33.066,91.227 27.978,91.106 C22.89,90.862 19.136,90.742 15.623,90.742 C15.139,90.742 13.081,90.862 10.658,90.862 C8.235,90.983 5.57,91.106 3.754,91.106 C2.422,91.106 1.815,90.862 1.815,90.138 C1.815,89.772 2.059,89.41 2.786,89.41 C3.875,89.41 5.33,89.169 6.42,88.926 C8.841,88.439 9.447,85.776 9.931,82.266 C10.537,77.177 10.537,67.609 10.537,55.98 L10.537,34.663 C10.537,15.77 10.537,12.378 10.294,8.502 C10.052,4.385 9.084,2.447 5.086,1.599 C4.118,1.356 2.059,1.236 0.969,1.236 C0.484,1.236 -3.55271368e-15,0.994 -3.55271368e-15,0.509 C-3.55271368e-15,-0.218 0.606,-0.46 1.938,-0.46 C7.389,-0.46 15.019,-0.097 15.623,-0.097 C16.228,-0.097 25.069,-0.46 28.705,-0.46 C30.037,-0.46 30.643,-0.218 30.643,0.509 C30.643,0.994 30.157,1.236 29.674,1.236 C28.824,1.236 27.13,1.356 25.677,1.599 C22.165,2.203 21.195,4.264 20.954,8.502 C20.71,12.378 20.71,15.77 20.71,34.663 L20.71,56.223" fill="#313131"></path>
                <path d="M90.904,79.539 C90.904,86.012 85.657,91.258 79.185,91.258 C72.71,91.258 67.462,86.012 67.462,79.539 C67.462,73.065 72.71,67.816 79.185,67.816 C85.657,67.816 90.904,73.065 90.904,79.539 M152.187,88.903 C152.081,88.556 151.51,88.351 150.933,88.528 C150.238,88.741 148.615,89.237 146.309,89.562 C143.272,89.987 137.902,90.236 129.627,85.549 C120.93,80.55 110.214,72.909 97.423,63.946 C85.057,54.405 64.892,39.334 57.529,32.52 C50.587,26.021 49.227,20.819 48.725,17.795 C48.348,15.496 48.339,13.8 48.336,13.071 C48.331,12.468 47.967,11.984 47.602,11.986 C46.877,11.991 46.638,12.72 46.65,14.899 L46.698,23.498 C46.736,30.28 47.359,33.305 49.071,36.444 C51.885,41.638 57.845,45.844 66.966,52.695 C72.261,56.693 89.229,68.995 93.156,71.838 C97.032,74.745 102.549,78.962 107.558,82.552 C116.817,89.216 122.607,93.65 128.403,94.791 C131.911,95.49 134.981,95.185 141.47,93.197 L149.691,90.681 C151.776,90.042 152.399,89.598 152.187,88.903" fill="#1AA260"></path>
                <path d="M52.732,1.236 C53.822,1.236 55.88,1.356 56.85,1.599 C60.846,2.447 61.815,4.385 62.059,8.502 C62.254,11.63 62.291,14.447 62.297,25.345 C64.734,27.503 68.118,30.271 71.991,33.339 L71.991,5.596 C71.991,4.87 72.353,4.385 72.958,4.142 C74.171,3.78 77.438,3.416 81.072,3.416 C94.033,3.416 102.026,12.499 102.026,27.639 C102.026,36.844 98.877,43.385 94.638,46.291 C93.476,47.1 92.206,47.621 90.913,47.971 C94.544,50.745 98.011,53.392 101.018,55.708 L104.353,58.049 C102.174,55.258 99.907,52.346 97.545,49.319 C108.446,39.267 112.2,30.304 112.2,21.34 C112.2,12.984 106.871,7.05 103.843,4.87 C97.423,0.267 89.309,-0.46 81.679,-0.46 C77.924,-0.46 68.72,-0.097 67.387,-0.097 C66.78,-0.097 59.152,-0.46 53.701,-0.46 C52.368,-0.46 51.763,-0.218 51.763,0.509 C51.763,0.994 52.247,1.236 52.732,1.236" fill="#313131"></path>
            </g>
            <path d="M179.047,-0.332 L185.222,-0.332 L185.222,205 L179.047,205 L179.047,-0.332 L179.047,-0.332 Z" id="Shape" fill="#313131" sketch:type="MSShapeGroup"></path>
            <g id="Shape" transform="translate(214.000000, 76.000000)" fill="#1AA260" sketch:type="MSShapeGroup">
                <path d="M18.287,38.767 C18.287,49.483 18.287,55.262 20.046,56.769 C21.469,58.027 23.648,58.61 30.178,58.61 C34.616,58.61 37.881,58.525 39.976,56.268 C40.979,55.179 41.983,52.832 42.152,51.245 C42.236,50.487 42.403,49.987 43.072,49.987 C43.66,49.987 43.742,50.406 43.742,51.409 C43.742,52.332 43.156,58.61 42.487,61.038 C41.983,62.883 41.566,63.3 37.212,63.3 C31.183,63.3 26.829,63.132 23.062,63.049 C19.293,62.883 16.277,62.798 12.846,62.798 C11.922,62.798 10.083,62.798 8.073,62.883 C6.147,62.883 3.969,63.049 2.296,63.049 C1.207,63.049 0.62,62.798 0.62,62.212 C0.62,61.793 0.956,61.542 1.959,61.542 C3.216,61.542 4.22,61.374 4.975,61.206 C6.648,60.872 7.067,59.029 7.404,56.603 C7.822,53.085 7.822,46.471 7.822,38.767 L7.822,24.029 C7.822,11.301 7.822,8.956 7.653,6.275 C7.486,3.429 6.816,2.09 4.052,1.505 C3.383,1.338 2.379,1.253 1.289,1.253 C0.369,1.253 -0.135,1.086 -0.135,0.499 C-0.135,-0.086 0.453,-0.254 1.708,-0.254 C5.644,-0.254 10.918,-0.003 13.181,-0.003 C15.191,-0.003 21.303,-0.254 24.567,-0.254 C25.74,-0.254 26.328,-0.086 26.328,0.499 C26.328,1.086 25.824,1.253 24.818,1.253 C23.899,1.253 22.56,1.338 21.552,1.505 C19.293,1.923 18.623,3.346 18.457,6.275 C18.287,8.956 18.287,11.301 18.287,24.029 L18.287,38.767 M56.807,29.81 C56.807,19.007 56.807,16.994 56.723,14.734 C56.556,12.307 55.885,11.552 53.542,10.884 C52.954,10.715 51.699,10.633 50.61,10.633 C49.858,10.633 49.355,10.38 49.355,9.88 C49.355,9.375 49.94,9.208 51.03,9.208 C54.883,9.208 59.569,9.375 61.664,9.375 C64.007,9.375 80.336,9.459 81.76,9.375 C83.1,9.291 84.271,9.04 84.856,8.956 C85.276,8.872 85.695,8.621 86.029,8.621 C86.449,8.621 86.533,8.956 86.533,9.291 C86.533,9.794 86.113,10.633 85.947,13.896 C85.862,14.651 85.695,17.751 85.527,18.585 C85.443,18.921 85.276,19.758 84.69,19.758 C84.188,19.758 84.104,19.422 84.104,18.836 C84.104,18.334 84.021,17.079 83.602,16.241 C83.017,14.985 82.429,13.979 78.745,13.647 C77.489,13.479 68.697,13.312 67.189,13.312 C66.855,13.312 66.689,13.562 66.689,13.979 L66.689,31.565 C66.689,31.986 66.771,32.318 67.189,32.318 C68.864,32.318 78.409,32.318 80.085,32.152 C81.844,31.986 82.931,31.816 83.602,31.064 C84.188,30.564 84.44,30.142 84.772,30.142 C85.109,30.142 85.36,30.476 85.36,30.896 C85.36,31.314 85.192,32.488 84.772,36.088 C84.607,37.512 84.44,40.358 84.44,40.856 C84.44,41.447 84.356,42.45 83.684,42.45 C83.184,42.45 83.017,42.199 83.017,41.864 C82.931,41.111 82.931,40.19 82.764,39.272 C82.345,37.848 81.425,36.755 78.662,36.504 C77.323,36.34 68.948,36.171 67.107,36.171 C66.771,36.171 66.689,36.504 66.689,36.925 L66.689,42.618 C66.689,45.05 66.603,51.077 66.689,53.166 C66.855,58.027 69.115,59.114 76.652,59.114 C78.578,59.114 81.677,59.029 83.602,58.191 C85.443,57.356 86.28,55.847 86.784,52.917 C86.952,52.166 87.119,51.83 87.62,51.83 C88.206,51.83 88.292,52.749 88.292,53.502 C88.292,55.094 87.705,59.949 87.286,61.374 C86.784,63.219 86.113,63.219 83.351,63.219 C77.825,63.219 73.387,63.132 69.785,62.966 C66.186,62.883 63.421,62.798 61.245,62.798 C60.409,62.798 58.818,62.883 57.058,62.883 C55.299,62.966 53.458,63.049 51.95,63.049 C51.03,63.049 50.528,62.798 50.528,62.296 C50.528,61.963 50.779,61.542 51.699,61.542 C52.788,61.542 53.626,61.459 54.295,61.291 C55.803,60.955 56.222,59.615 56.473,57.523 C56.807,54.509 56.807,48.897 56.807,42.367 L56.807,29.81 M98.505,16.158 C96.833,12.224 95.744,11.552 93.064,10.884 C91.975,10.633 90.802,10.633 90.219,10.633 C89.548,10.633 89.378,10.296 89.378,9.88 C89.378,9.291 90.135,9.208 91.221,9.208 C95.157,9.208 99.345,9.375 101.941,9.375 C103.781,9.375 107.633,9.208 111.317,9.208 C112.237,9.208 113.078,9.375 113.078,9.88 C113.078,10.38 112.574,10.633 111.904,10.633 C110.731,10.633 109.643,10.715 109.057,11.135 C108.555,11.469 108.303,11.888 108.303,12.558 C108.303,13.479 108.973,15.404 109.979,17.917 L122.371,49.821 L122.62,49.821 C125.804,42.45 135.266,19.507 137.023,14.817 C137.359,13.896 137.692,12.807 137.692,12.224 C137.692,11.469 137.359,11.218 136.688,10.966 C135.852,10.715 134.678,10.633 133.758,10.633 C133.088,10.633 132.502,10.38 132.502,9.88 C132.502,9.375 133.172,9.208 134.596,9.208 C138.281,9.208 141.544,9.375 142.467,9.375 C143.723,9.375 147.155,9.208 149.414,9.208 C150.338,9.208 150.922,9.375 150.922,9.88 C150.922,10.38 150.506,10.633 149.752,10.633 C148.998,10.633 147.406,10.547 146.149,11.469 C145.23,12.139 144.225,13.229 142.299,17.751 C139.369,24.448 137.441,28.3 133.424,37.01 C128.734,47.39 125.301,55.179 123.627,58.78 C121.784,62.883 121.115,63.97 120.107,63.97 C119.105,63.97 118.52,63.049 117.096,59.7 L98.505,16.158 M158.797,29.81 C158.797,19.007 158.797,16.994 158.713,14.734 C158.545,12.307 157.875,11.552 155.531,10.884 C154.945,10.715 153.688,10.633 152.599,10.633 C151.847,10.633 151.344,10.38 151.344,9.88 C151.344,9.375 151.93,9.208 153.018,9.208 C156.871,9.208 161.559,9.375 163.651,9.375 C165.996,9.375 182.326,9.459 183.748,9.375 C185.089,9.291 186.26,9.04 186.848,8.956 C187.266,8.872 187.684,8.621 188.019,8.621 C188.438,8.621 188.522,8.956 188.522,9.291 C188.522,9.794 188.103,10.633 187.934,13.896 C187.852,14.651 187.684,17.751 187.517,18.585 C187.432,18.921 187.266,19.758 186.68,19.758 C186.178,19.758 186.092,19.422 186.092,18.836 C186.092,18.334 186.009,17.079 185.591,16.241 C185.004,14.985 184.418,13.979 180.734,13.647 C179.477,13.479 170.687,13.312 169.179,13.312 C168.844,13.312 168.677,13.562 168.677,13.979 L168.677,31.565 C168.677,31.986 168.76,32.318 169.179,32.318 C170.854,32.318 180.4,32.318 182.073,32.152 C183.832,31.986 184.92,31.816 185.591,31.064 C186.178,30.564 186.428,30.142 186.764,30.142 C187.099,30.142 187.348,30.476 187.348,30.896 C187.348,31.314 187.182,32.488 186.764,36.088 C186.595,37.512 186.428,40.358 186.428,40.856 C186.428,41.447 186.344,42.45 185.676,42.45 C185.172,42.45 185.004,42.199 185.004,41.864 C184.92,41.111 184.92,40.19 184.752,39.272 C184.336,37.848 183.412,36.755 180.65,36.504 C179.311,36.34 170.938,36.171 169.095,36.171 C168.76,36.171 168.677,36.504 168.677,36.925 L168.677,42.618 C168.677,45.05 168.593,51.077 168.677,53.166 C168.844,58.027 171.105,59.114 178.641,59.114 C180.566,59.114 183.665,59.029 185.591,58.191 C187.432,57.356 188.271,55.847 188.771,52.917 C188.939,52.166 189.107,51.83 189.61,51.83 C190.195,51.83 190.279,52.749 190.279,53.502 C190.279,55.094 189.694,59.949 189.275,61.374 C188.771,63.219 188.103,63.219 185.34,63.219 C179.813,63.219 175.375,63.132 171.775,62.966 C168.175,62.883 165.412,62.798 163.232,62.798 C162.396,62.798 160.806,62.883 159.047,62.883 C157.289,62.966 155.447,63.049 153.939,63.049 C153.018,63.049 152.516,62.798 152.516,62.296 C152.516,61.963 152.768,61.542 153.688,61.542 C154.777,61.542 155.614,61.459 156.284,61.291 C157.792,60.955 158.21,59.615 158.461,57.523 C158.797,54.509 158.797,48.897 158.797,42.367 L158.797,29.81"></path>
                <path d="M214.73,35.331 C214.73,36.088 214.898,36.34 215.402,36.591 C216.992,37.091 219.171,37.259 221.012,37.259 C223.941,37.259 224.947,37.01 226.203,36.088 C228.463,34.495 230.976,31.397 230.976,25.536 C230.976,15.487 224.109,12.892 219.757,12.892 C217.914,12.892 216.156,12.977 215.402,13.144 C214.898,13.312 214.73,13.562 214.73,14.147 L214.73,35.331 L214.73,35.331 Z M205.354,29.81 C205.354,19.007 205.354,16.994 205.27,14.734 C205.103,12.307 204.432,11.552 202.088,10.884 C201.501,10.715 200.246,10.633 199.157,10.633 C198.402,10.633 197.902,10.38 197.902,9.88 C197.902,9.375 198.487,9.208 199.576,9.208 C203.428,9.208 208.116,9.375 209.624,9.375 C212.136,9.375 218.834,9.208 221.096,9.208 C225.785,9.208 231.145,9.629 235.08,12.224 C237.174,13.647 240.27,17.247 240.27,22.018 C240.27,27.293 237.254,31.986 230.055,37.761 C236.586,45.801 241.777,52.247 246.215,56.686 C250.318,60.789 252.914,61.123 254.086,61.374 C254.839,61.542 255.258,61.542 255.846,61.542 C256.43,61.542 256.766,61.963 256.766,62.296 C256.766,62.883 256.262,63.049 255.343,63.049 L248.309,63.049 C244.205,63.049 242.197,62.63 240.27,61.625 C237.089,60.038 234.326,56.686 230.223,51.16 C227.291,47.307 224.193,42.535 223.273,41.447 C222.854,41.026 222.436,40.943 221.934,40.943 L215.318,40.775 C214.982,40.775 214.73,40.943 214.73,41.362 L214.73,42.367 C214.73,48.983 214.816,54.509 215.15,57.523 C215.402,59.615 215.736,60.955 217.998,61.291 C219.086,61.459 220.678,61.542 221.597,61.542 C222.186,61.542 222.519,61.963 222.519,62.296 C222.519,62.798 221.934,63.049 221.012,63.049 C216.742,63.049 210.629,62.798 209.539,62.798 C208.116,62.798 203.428,63.049 200.496,63.049 C199.576,63.049 199.074,62.798 199.074,62.296 C199.074,61.963 199.326,61.542 200.246,61.542 C201.334,61.542 202.171,61.459 202.842,61.291 C204.35,60.955 204.768,59.615 205.02,57.523 C205.354,54.509 205.354,48.897 205.354,42.367 L205.354,29.81 L205.354,29.81 Z M262.797,29.81 C262.797,19.007 262.797,16.994 262.713,14.734 C262.546,12.307 261.873,11.552 259.531,10.884 C258.945,10.715 257.689,10.633 256.6,10.633 C255.848,10.633 255.344,10.38 255.344,9.88 C255.344,9.375 255.93,9.208 257.019,9.208 C260.871,9.208 265.56,9.375 267.654,9.375 C269.998,9.375 286.325,9.459 287.749,9.375 C289.089,9.291 290.26,9.04 290.849,8.956 C291.267,8.872 291.684,8.621 292.019,8.621 C292.439,8.621 292.521,8.956 292.521,9.291 C292.521,9.794 292.104,10.633 291.937,13.896 C291.851,14.651 291.684,17.751 291.518,18.585 C291.435,18.921 291.267,19.758 290.682,19.758 C290.178,19.758 290.093,19.422 290.093,18.836 C290.093,18.334 290.011,17.079 289.591,16.241 C289.004,14.985 288.419,13.979 284.733,13.647 C283.477,13.479 274.688,13.312 273.18,13.312 C272.846,13.312 272.678,13.562 272.678,13.979 L272.678,31.565 C272.678,31.986 272.76,32.318 273.18,32.318 C274.853,32.318 284.4,32.318 286.075,32.152 C287.835,31.986 288.921,31.816 289.591,31.064 C290.178,30.564 290.428,30.142 290.765,30.142 C291.098,30.142 291.349,30.476 291.349,30.896 C291.349,31.314 291.184,32.488 290.765,36.088 C290.596,37.512 290.428,40.358 290.428,40.856 C290.428,41.447 290.344,42.45 289.674,42.45 C289.172,42.45 289.004,42.199 289.004,41.864 C288.921,41.111 288.921,40.19 288.756,39.272 C288.337,37.848 287.414,36.755 284.651,36.504 C283.31,36.34 274.939,36.171 273.096,36.171 C272.76,36.171 272.678,36.504 272.678,36.925 L272.678,42.618 C272.678,45.05 272.592,51.077 272.678,53.166 C272.846,58.027 275.106,59.114 282.644,59.114 C284.569,59.114 287.666,59.029 289.591,58.191 C291.435,57.356 292.271,55.847 292.771,52.917 C292.94,52.166 293.105,51.83 293.611,51.83 C294.196,51.83 294.281,52.749 294.281,53.502 C294.281,55.094 293.695,59.949 293.275,61.374 C292.771,63.219 292.104,63.219 289.34,63.219 C283.813,63.219 279.373,63.132 275.773,62.966 C272.174,62.883 269.412,62.798 267.232,62.798 C266.398,62.798 264.807,62.883 263.047,62.883 C261.289,62.966 259.446,63.049 257.94,63.049 C257.019,63.049 256.517,62.798 256.517,62.296 C256.517,61.963 256.768,61.542 257.689,61.542 C258.777,61.542 259.615,61.459 260.285,61.291 C261.791,60.955 262.209,59.615 262.463,57.523 C262.797,54.509 262.797,48.897 262.797,42.367 L262.797,29.81 L262.797,29.81 Z"></path>
                <path d="M319.234,37.68 C319.234,45.214 319.321,50.657 319.403,52.079 C319.487,53.839 319.654,56.351 320.239,57.105 C321.16,58.444 324.09,59.949 329.87,59.949 C336.566,59.949 341.509,58.78 345.947,55.094 C350.718,51.16 352.226,44.794 352.226,37.427 C352.226,28.385 348.627,22.521 345.357,19.675 C338.576,13.647 330.537,12.892 324.76,12.892 C323.254,12.892 320.825,13.06 320.239,13.395 C319.568,13.647 319.321,13.979 319.321,14.817 C319.234,17.247 319.234,23.108 319.234,28.717 L319.234,37.68 L319.234,37.68 Z M309.355,29.81 C309.355,19.007 309.355,16.994 309.27,14.734 C309.102,12.307 308.435,11.552 306.089,10.884 C305.502,10.715 304.246,10.633 303.156,10.633 C302.405,10.633 301.9,10.38 301.9,9.88 C301.9,9.375 302.486,9.208 303.579,9.208 C307.428,9.208 312.117,9.375 314.211,9.375 C316.474,9.375 321.744,9.208 326.185,9.208 C335.396,9.208 347.788,9.208 355.827,17.33 C359.51,21.013 362.777,26.959 362.777,35.418 C362.777,44.375 358.922,51.16 354.737,55.262 C351.389,58.61 343.604,63.636 330.036,63.636 C327.356,63.636 324.176,63.387 321.243,63.219 C318.313,62.966 315.634,62.798 313.792,62.798 C312.955,62.798 311.364,62.883 309.604,62.883 C307.847,62.966 306.004,63.049 304.497,63.049 C303.579,63.049 303.075,62.798 303.075,62.296 C303.075,61.963 303.325,61.542 304.246,61.542 C305.333,61.542 306.172,61.459 306.842,61.291 C308.349,60.955 308.77,59.615 309.019,57.523 C309.355,54.509 309.355,48.897 309.355,42.367 L309.355,29.81 L309.355,29.81 Z"></path>
            </g>
            <g id="Group" transform="translate(611.000000, 76.000000)" fill="#313131" sketch:type="MSShapeGroup">
                <path d="M18.616,30.645 C18.616,31.565 18.784,31.899 19.368,32.152 C21.126,32.739 23.64,32.988 25.733,32.988 C29.082,32.988 30.173,32.652 31.675,31.565 C34.188,29.723 36.619,25.872 36.619,19.007 C36.619,7.115 28.748,3.68 23.805,3.68 C21.711,3.68 20.207,3.767 19.368,4.018 C18.784,4.186 18.616,4.52 18.616,5.189 L18.616,30.645 L18.616,30.645 Z M8.734,24.029 C8.734,11.301 8.734,8.956 8.568,6.275 C8.399,3.429 7.729,2.09 4.968,1.505 C4.298,1.338 2.874,1.253 1.701,1.253 C0.78,1.253 0.275,1.086 0.275,0.499 C0.275,-0.086 0.864,-0.254 2.121,-0.254 C6.558,-0.254 11.832,-0.003 13.592,-0.003 C16.438,-0.003 22.8,-0.254 25.396,-0.254 C30.671,-0.254 36.283,0.248 40.805,3.346 C43.149,4.938 46.498,9.208 46.498,14.817 C46.498,21.013 43.903,26.708 35.444,33.576 C42.898,42.952 48.675,50.406 53.616,55.598 C58.304,60.453 61.735,61.038 62.993,61.291 C63.914,61.459 64.668,61.542 65.338,61.542 C66.009,61.542 66.342,61.793 66.342,62.212 C66.342,62.883 65.758,63.049 64.751,63.049 L56.797,63.049 C52.106,63.049 50.017,62.63 47.84,61.459 C44.236,59.532 41.056,55.598 36.365,49.151 C33.02,44.543 29.166,38.85 28.078,37.595 C27.659,37.091 27.157,37.01 26.569,37.01 L19.286,36.842 C18.866,36.842 18.616,37.01 18.616,37.512 L18.616,38.682 C18.616,46.471 18.616,53.085 19.032,56.603 C19.286,59.029 19.788,60.872 22.302,61.206 C23.557,61.374 25.396,61.542 26.404,61.542 C27.071,61.542 27.408,61.793 27.408,62.212 C27.408,62.798 26.82,63.049 25.733,63.049 C20.878,63.049 14.68,62.798 13.424,62.798 C11.832,62.798 6.558,63.049 3.208,63.049 C2.121,63.049 1.533,62.798 1.533,62.212 C1.533,61.793 1.867,61.542 2.874,61.542 C4.129,61.542 5.133,61.374 5.889,61.206 C7.563,60.872 7.98,59.029 8.315,56.603 C8.734,53.085 8.734,46.471 8.734,38.767 L8.734,24.029 L8.734,24.029 Z M70.282,29.81 C70.282,19.007 70.282,16.994 70.193,14.734 C70.028,12.307 69.36,11.552 67.013,10.884 C66.428,10.715 65.173,10.633 64.083,10.633 C63.329,10.633 62.828,10.38 62.828,9.88 C62.828,9.375 63.412,9.208 64.503,9.208 C68.354,9.208 73.044,9.375 75.137,9.375 C77.482,9.375 93.809,9.459 95.232,9.375 C96.573,9.291 97.745,9.04 98.33,8.956 C98.75,8.872 99.167,8.621 99.5,8.621 C99.923,8.621 100.005,8.956 100.005,9.291 C100.005,9.794 99.589,10.633 99.421,13.896 C99.335,14.651 99.167,17.751 99.001,18.585 C98.919,18.921 98.75,19.758 98.162,19.758 C97.66,19.758 97.577,19.422 97.577,18.836 C97.577,18.334 97.491,17.079 97.075,16.241 C96.487,14.985 95.903,13.979 92.22,13.647 C90.965,13.479 82.17,13.312 80.663,13.312 C80.326,13.312 80.161,13.562 80.161,13.979 L80.161,31.565 C80.161,31.986 80.244,32.318 80.663,32.318 C82.338,32.318 91.883,32.318 93.558,32.152 C95.314,31.986 96.405,31.816 97.075,31.064 C97.66,30.564 97.911,30.142 98.244,30.142 C98.582,30.142 98.836,30.476 98.836,30.896 C98.836,31.314 98.668,32.488 98.244,36.088 C98.079,37.512 97.911,40.358 97.911,40.856 C97.911,41.447 97.828,42.45 97.158,42.45 C96.656,42.45 96.487,42.199 96.487,41.864 C96.405,41.111 96.405,40.19 96.237,39.272 C95.82,37.848 94.898,36.755 92.134,36.504 C90.797,36.34 82.421,36.171 80.577,36.171 C80.244,36.171 80.161,36.504 80.161,36.925 L80.161,42.618 C80.161,45.05 80.078,51.077 80.161,53.166 C80.326,58.027 82.589,59.114 90.126,59.114 C92.052,59.114 95.149,59.029 97.075,58.191 C98.919,57.356 99.754,55.847 100.259,52.917 C100.425,52.166 100.59,51.83 101.092,51.83 C101.683,51.83 101.763,52.749 101.763,53.502 C101.763,55.094 101.177,59.949 100.758,61.374 C100.259,63.219 99.589,63.219 96.821,63.219 C91.296,63.219 86.859,63.132 83.256,62.966 C79.656,62.883 76.895,62.798 74.718,62.798 C73.88,62.798 72.29,62.883 70.53,62.883 C68.77,62.966 66.931,63.049 65.424,63.049 C64.503,63.049 64.001,62.798 64.001,62.296 C64.001,61.963 64.252,61.542 65.173,61.542 C66.26,61.542 67.099,61.459 67.77,61.291 C69.274,60.955 69.691,59.615 69.946,57.523 C70.282,54.509 70.282,48.897 70.282,42.367 L70.282,29.81 L70.282,29.81 Z M128.308,13.562 L117.342,13.813 C113.068,13.896 111.311,14.398 110.222,15.989 C109.471,16.994 109.134,17.917 108.966,18.417 C108.801,19.007 108.632,19.339 108.13,19.339 C107.625,19.339 107.46,18.921 107.46,18.166 C107.46,16.994 108.88,10.129 109.048,9.543 C109.217,8.621 109.471,8.203 109.887,8.203 C110.473,8.203 111.225,8.789 113.068,9.04 C115.247,9.291 118.009,9.375 120.437,9.375 L150.327,9.375 C152.676,9.375 154.265,9.208 155.354,9.04 C156.527,8.872 157.112,8.705 157.363,8.705 C157.868,8.705 157.95,9.123 157.95,10.213 C157.95,11.72 157.782,16.994 157.782,18.836 C157.699,19.59 157.531,20.009 157.112,20.009 C156.527,20.009 156.359,19.675 156.275,18.585 L156.189,17.832 C156.021,15.989 154.097,13.813 147.48,13.73 L138.189,13.562 L138.189,42.367 C138.189,48.897 138.271,54.509 138.608,57.606 C138.859,59.615 139.279,60.955 141.456,61.291 C142.457,61.459 144.135,61.542 145.225,61.542 C146.061,61.542 146.394,61.963 146.394,62.296 C146.394,62.798 145.81,63.049 144.971,63.049 C140.115,63.049 135.174,62.798 133.08,62.798 C131.405,62.798 126.382,63.049 123.452,63.049 C122.531,63.049 122.029,62.798 122.029,62.296 C122.029,61.963 122.28,61.542 123.201,61.542 C124.29,61.542 125.213,61.459 125.797,61.291 C127.303,60.955 127.723,59.615 127.974,57.523 C128.308,54.509 128.308,48.897 128.308,42.367 L128.308,13.562 L128.308,13.562 Z M168.335,29.81 C168.335,19.007 168.418,16.994 168.249,14.734 C168.084,12.224 167.413,11.552 165.072,10.884 C164.48,10.715 163.226,10.633 162.225,10.633 C161.385,10.633 160.966,10.38 160.966,9.88 C160.966,9.375 161.471,9.208 162.559,9.208 C166.495,9.208 171.434,9.375 173.609,9.375 C175.452,9.375 180.391,9.208 183.072,9.208 C184.162,9.208 184.661,9.375 184.661,9.88 C184.661,10.38 184.244,10.633 183.491,10.633 C182.653,10.633 182.236,10.715 181.314,10.884 C179.389,11.218 178.801,12.224 178.636,14.734 C178.468,16.994 178.468,19.007 178.468,29.81 L178.468,39.772 C178.468,50.151 180.477,54.175 184.076,57.022 C187.34,59.615 190.859,59.868 193.37,59.868 C196.551,59.868 200.32,58.946 203.25,56.1 C207.354,52.247 207.521,46.05 207.521,38.767 L207.521,29.81 C207.521,19.007 207.438,16.994 207.354,14.734 C207.187,12.307 206.602,11.552 204.257,10.884 C203.669,10.715 202.413,10.633 201.578,10.633 C200.739,10.633 200.32,10.38 200.32,9.88 C200.32,9.375 200.825,9.208 201.826,9.208 C205.598,9.208 210.535,9.375 210.621,9.375 C211.458,9.375 216.398,9.208 219.245,9.208 C220.253,9.208 220.752,9.375 220.752,9.88 C220.752,10.38 220.332,10.633 219.493,10.633 C218.66,10.633 218.238,10.715 217.32,10.884 C215.309,11.218 214.807,12.224 214.639,14.734 C214.556,16.994 214.473,19.007 214.473,29.81 L214.473,37.427 C214.473,45.382 213.637,53.756 207.438,58.861 C202.248,63.219 196.634,63.97 191.864,63.97 C188.01,63.97 180.391,63.802 175.033,59.114 C171.265,55.847 168.335,50.574 168.335,40.273 L168.335,29.81 L168.335,29.81 Z" id="Shape"></path>
                <path d="M242.86,35.331 C242.86,36.088 243.029,36.34 243.531,36.591 C245.123,37.091 247.297,37.259 249.14,37.259 C252.072,37.259 253.073,37.01 254.331,36.088 C256.594,34.495 259.104,31.397 259.104,25.536 C259.104,15.487 252.241,12.892 247.884,12.892 C246.042,12.892 244.284,12.977 243.531,13.144 C243.029,13.312 242.86,13.562 242.86,14.147 L242.86,35.331 L242.86,35.331 Z M233.483,29.81 C233.483,19.007 233.483,16.994 233.397,14.734 C233.229,12.307 232.563,11.552 230.214,10.884 C229.63,10.715 228.374,10.633 227.287,10.633 C226.534,10.633 226.029,10.38 226.029,9.88 C226.029,9.375 226.617,9.208 227.704,9.208 C231.555,9.208 236.245,9.375 237.755,9.375 C240.265,9.375 246.963,9.208 249.226,9.208 C253.912,9.208 259.272,9.629 263.206,12.224 C265.3,13.647 268.398,17.247 268.398,22.018 C268.398,27.293 265.383,31.986 258.183,37.761 C264.716,45.801 269.908,52.247 274.347,56.686 C278.446,60.789 281.042,61.123 282.218,61.374 C282.971,61.542 283.387,61.542 283.972,61.542 C284.563,61.542 284.896,61.963 284.896,62.296 C284.896,62.883 284.392,63.049 283.473,63.049 L276.438,63.049 C272.336,63.049 270.324,62.63 268.398,61.625 C265.218,60.038 262.453,56.686 258.352,51.16 C255.422,47.307 252.32,42.535 251.401,41.447 C250.982,41.026 250.563,40.943 250.064,40.943 L243.448,40.775 C243.112,40.775 242.86,40.943 242.86,41.362 L242.86,42.367 C242.86,48.983 242.947,54.509 243.28,57.523 C243.531,59.615 243.865,60.955 246.128,61.291 C247.214,61.459 248.807,61.542 249.728,61.542 C250.312,61.542 250.648,61.963 250.648,62.296 C250.648,62.798 250.064,63.049 249.14,63.049 C244.872,63.049 238.755,62.798 237.669,62.798 C236.245,62.798 231.555,63.049 228.629,63.049 C227.704,63.049 227.205,62.798 227.205,62.296 C227.205,61.963 227.453,61.542 228.374,61.542 C229.461,61.542 230.3,61.459 230.973,61.291 C232.477,60.955 232.896,59.615 233.146,57.523 C233.483,54.509 233.483,48.897 233.483,42.367 L233.483,29.81 L233.483,29.81 Z M295.532,53.336 C295.697,58.861 296.618,60.538 298.041,61.038 C299.3,61.459 300.72,61.542 301.894,61.542 C302.731,61.542 303.147,61.876 303.147,62.296 C303.147,62.883 302.478,63.049 301.477,63.049 C296.701,63.049 293.27,62.798 291.928,62.798 C291.261,62.798 287.743,63.049 283.976,63.049 C282.971,63.049 282.3,62.966 282.3,62.296 C282.3,61.876 282.802,61.542 283.473,61.542 C284.479,61.542 285.814,61.459 286.822,61.206 C288.747,60.708 288.998,58.78 289.081,52.583 L289.752,10.38 C289.752,8.956 290.254,7.952 291.007,7.952 C291.928,7.952 292.933,9.04 294.19,10.296 C295.111,11.218 306.163,22.521 316.882,32.988 C321.905,37.929 331.701,47.978 332.792,48.983 L333.125,48.983 L332.371,17.33 C332.286,12.977 331.622,11.72 329.862,11.05 C328.771,10.633 327.015,10.633 326.007,10.633 C325.089,10.633 324.838,10.296 324.838,9.88 C324.838,9.291 325.591,9.208 326.678,9.208 C330.529,9.208 334.466,9.375 336.055,9.375 C336.894,9.375 339.658,9.208 343.258,9.208 C344.262,9.208 344.933,9.291 344.933,9.88 C344.933,10.296 344.514,10.633 343.677,10.633 C342.925,10.633 342.337,10.633 341.416,10.884 C339.404,11.469 338.819,12.724 338.733,16.743 L337.9,61.625 C337.9,63.219 337.31,63.885 336.726,63.885 C335.47,63.885 334.466,63.132 333.713,62.378 C329.108,58.11 319.896,49.317 312.194,41.864 C304.155,34.163 296.367,25.536 294.943,24.28 L294.692,24.28 L295.532,53.336 L295.532,53.336 Z M357.325,62.125 C356.156,61.625 355.902,61.291 355.902,59.7 C355.902,55.847 356.238,51.409 356.324,50.238 C356.324,49.151 356.658,48.398 357.242,48.398 C357.913,48.398 357.995,49.064 357.995,49.566 C357.995,50.487 358.246,51.998 358.666,53.253 C360.258,58.525 365.783,60.285 370.389,60.285 C376.753,60.285 380.606,56.268 380.606,51.245 C380.606,48.144 379.851,45.05 373.321,41.194 L369.05,38.682 C360.341,33.576 357.493,28.802 357.493,22.521 C357.493,13.813 365.866,8.203 376.082,8.203 C380.854,8.203 384.623,8.872 386.552,9.375 C387.222,9.543 387.553,9.794 387.553,10.296 C387.553,11.218 387.302,13.229 387.302,18.836 C387.302,20.347 386.968,21.1 386.384,21.1 C385.882,21.1 385.631,20.679 385.631,19.841 C385.631,19.175 385.294,16.994 383.705,15.153 C382.615,13.813 380.27,11.803 375.497,11.803 C370.219,11.803 365.45,14.566 365.45,19.422 C365.45,22.606 366.619,25.117 373.234,28.802 L376.251,30.476 C385.964,35.833 388.977,41.279 388.977,47.728 C388.977,53 386.968,57.271 381.607,61.038 C378.093,63.551 373.234,63.97 369.298,63.97 C365.031,63.97 360.509,63.551 357.325,62.125 L357.325,62.125 Z" id="Shape"></path>
            </g>
        </g>
    </g>
</svg>